<mxfile host="app.diagrams.net" modified="2023-04-18T02:10:01.771Z" agent="Mozilla/5.0 (Windows NT 10.0; Win64; x64) AppleWebKit/537.36 (KHTML, like Gecko) Chrome/111.0.0.0 Safari/537.36" etag="x7Uolar__-AwaLqzpEcx" version="21.1.5" type="github">
  <diagram name="Page-1" id="VtV5nEtKfiHqlwoiPdoe">
    <mxGraphModel dx="1221" dy="630" grid="1" gridSize="10" guides="1" tooltips="1" connect="1" arrows="1" fold="1" page="1" pageScale="1" pageWidth="1654" pageHeight="2336" math="0" shadow="0">
      <root>
        <mxCell id="0" />
        <mxCell id="1" parent="0" />
        <mxCell id="NzIASY8x4UaHDfxS7ESc-3" value="" style="endArrow=classic;html=1;rounded=0;" edge="1" parent="1">
          <mxGeometry width="50" height="50" relative="1" as="geometry">
            <mxPoint x="410" y="330" as="sourcePoint" />
            <mxPoint x="465" y="360" as="targetPoint" />
          </mxGeometry>
        </mxCell>
        <mxCell id="NzIASY8x4UaHDfxS7ESc-4" value="..." style="rounded=0;whiteSpace=wrap;html=1;strokeWidth=0;strokeColor=none;" vertex="1" parent="1">
          <mxGeometry x="425" y="360" width="70" height="30" as="geometry" />
        </mxCell>
        <mxCell id="xFGylxkDXYQBv1xwGUli-1" value="G0" style="rounded=0;whiteSpace=wrap;html=1;" parent="1" vertex="1">
          <mxGeometry x="450" y="160" width="150" height="50" as="geometry" />
        </mxCell>
        <mxCell id="xFGylxkDXYQBv1xwGUli-2" value="G01:append operation B" style="rounded=0;whiteSpace=wrap;html=1;" parent="1" vertex="1">
          <mxGeometry x="320" y="280" width="190" height="50" as="geometry" />
        </mxCell>
        <mxCell id="xFGylxkDXYQBv1xwGUli-5" value="G03:append a Abs operation" style="rounded=0;whiteSpace=wrap;html=1;" parent="1" vertex="1">
          <mxGeometry x="790" y="280" width="190" height="50" as="geometry" />
        </mxCell>
        <mxCell id="xFGylxkDXYQBv1xwGUli-6" value="G02:append a Sum operation" style="rounded=0;whiteSpace=wrap;html=1;" parent="1" vertex="1">
          <mxGeometry x="560" y="280" width="190" height="50" as="geometry" />
        </mxCell>
        <mxCell id="xFGylxkDXYQBv1xwGUli-7" value="G00: append operation A" style="rounded=0;whiteSpace=wrap;html=1;" parent="1" vertex="1">
          <mxGeometry x="80" y="280" width="190" height="50" as="geometry" />
        </mxCell>
        <mxCell id="xFGylxkDXYQBv1xwGUli-8" value="G020:Create an operation" style="rounded=0;whiteSpace=wrap;html=1;" parent="1" vertex="1">
          <mxGeometry x="310" y="400" width="150" height="60" as="geometry" />
        </mxCell>
        <mxCell id="xFGylxkDXYQBv1xwGUli-9" value="G021:Set input(s) of operation" style="rounded=0;whiteSpace=wrap;html=1;" parent="1" vertex="1">
          <mxGeometry x="497" y="400" width="150" height="60" as="geometry" />
        </mxCell>
        <mxCell id="xFGylxkDXYQBv1xwGUli-10" value="G022: Add operation into computation graph" style="rounded=0;whiteSpace=wrap;html=1;" parent="1" vertex="1">
          <mxGeometry x="677" y="400" width="150" height="60" as="geometry" />
        </mxCell>
        <mxCell id="xFGylxkDXYQBv1xwGUli-11" value="&lt;u&gt;G0210: Set 1st input tensor&amp;nbsp;&lt;br&gt;(Depend on G00)&lt;/u&gt;" style="rounded=0;whiteSpace=wrap;html=1;" parent="1" vertex="1">
          <mxGeometry x="250" y="510" width="170" height="60" as="geometry" />
        </mxCell>
        <mxCell id="xFGylxkDXYQBv1xwGUli-12" value="&lt;u&gt;G0211: Set 2nd input tensor&lt;br&gt;(Depend on G01)&lt;/u&gt;" style="rounded=0;whiteSpace=wrap;html=1;" parent="1" vertex="1">
          <mxGeometry x="460" y="510" width="160" height="60" as="geometry" />
        </mxCell>
        <mxCell id="xFGylxkDXYQBv1xwGUli-13" value="G0212: Set 3rd input tensor&amp;nbsp;" style="rounded=0;whiteSpace=wrap;html=1;" parent="1" vertex="1">
          <mxGeometry x="650" y="510" width="160" height="60" as="geometry" />
        </mxCell>
        <mxCell id="xFGylxkDXYQBv1xwGUli-15" value="G0213:&amp;nbsp;Set 4th input tensor" style="rounded=0;whiteSpace=wrap;html=1;" parent="1" vertex="1">
          <mxGeometry x="840" y="510" width="150" height="60" as="geometry" />
        </mxCell>
        <mxCell id="xFGylxkDXYQBv1xwGUli-16" value="" style="endArrow=classic;html=1;rounded=0;exitX=0.5;exitY=1;exitDx=0;exitDy=0;entryX=0.5;entryY=0;entryDx=0;entryDy=0;" parent="1" source="xFGylxkDXYQBv1xwGUli-1" target="xFGylxkDXYQBv1xwGUli-7" edge="1">
          <mxGeometry width="50" height="50" relative="1" as="geometry">
            <mxPoint x="670" y="230" as="sourcePoint" />
            <mxPoint x="720" y="180" as="targetPoint" />
          </mxGeometry>
        </mxCell>
        <mxCell id="xFGylxkDXYQBv1xwGUli-17" value="" style="endArrow=classic;html=1;rounded=0;exitX=0.5;exitY=1;exitDx=0;exitDy=0;entryX=0.5;entryY=0;entryDx=0;entryDy=0;" parent="1" source="xFGylxkDXYQBv1xwGUli-1" target="xFGylxkDXYQBv1xwGUli-2" edge="1">
          <mxGeometry width="50" height="50" relative="1" as="geometry">
            <mxPoint x="535" y="220" as="sourcePoint" />
            <mxPoint x="185" y="290" as="targetPoint" />
          </mxGeometry>
        </mxCell>
        <mxCell id="xFGylxkDXYQBv1xwGUli-18" value="" style="endArrow=classic;html=1;rounded=0;entryX=0.5;entryY=0;entryDx=0;entryDy=0;exitX=0.5;exitY=1;exitDx=0;exitDy=0;" parent="1" source="xFGylxkDXYQBv1xwGUli-1" target="xFGylxkDXYQBv1xwGUli-6" edge="1">
          <mxGeometry width="50" height="50" relative="1" as="geometry">
            <mxPoint x="650" y="250" as="sourcePoint" />
            <mxPoint x="425" y="290" as="targetPoint" />
          </mxGeometry>
        </mxCell>
        <mxCell id="xFGylxkDXYQBv1xwGUli-19" value="" style="endArrow=classic;html=1;rounded=0;entryX=0.5;entryY=0;entryDx=0;entryDy=0;exitX=0.5;exitY=1;exitDx=0;exitDy=0;" parent="1" source="xFGylxkDXYQBv1xwGUli-1" target="xFGylxkDXYQBv1xwGUli-5" edge="1">
          <mxGeometry width="50" height="50" relative="1" as="geometry">
            <mxPoint x="520" y="220" as="sourcePoint" />
            <mxPoint x="665" y="290" as="targetPoint" />
          </mxGeometry>
        </mxCell>
        <mxCell id="xFGylxkDXYQBv1xwGUli-21" value="" style="endArrow=classic;html=1;rounded=0;entryX=0.5;entryY=0;entryDx=0;entryDy=0;exitX=0.5;exitY=1;exitDx=0;exitDy=0;" parent="1" source="xFGylxkDXYQBv1xwGUli-6" target="xFGylxkDXYQBv1xwGUli-9" edge="1">
          <mxGeometry width="50" height="50" relative="1" as="geometry">
            <mxPoint x="665" y="340" as="sourcePoint" />
            <mxPoint x="405" y="410" as="targetPoint" />
          </mxGeometry>
        </mxCell>
        <mxCell id="xFGylxkDXYQBv1xwGUli-22" value="" style="endArrow=classic;html=1;rounded=0;exitX=0.5;exitY=1;exitDx=0;exitDy=0;entryX=0.5;entryY=0;entryDx=0;entryDy=0;" parent="1" source="xFGylxkDXYQBv1xwGUli-6" target="xFGylxkDXYQBv1xwGUli-10" edge="1">
          <mxGeometry width="50" height="50" relative="1" as="geometry">
            <mxPoint x="700" y="370" as="sourcePoint" />
            <mxPoint x="610" y="500" as="targetPoint" />
          </mxGeometry>
        </mxCell>
        <mxCell id="xFGylxkDXYQBv1xwGUli-23" value="" style="endArrow=classic;html=1;rounded=0;exitX=0.5;exitY=1;exitDx=0;exitDy=0;entryX=0.5;entryY=0;entryDx=0;entryDy=0;" parent="1" source="xFGylxkDXYQBv1xwGUli-9" target="xFGylxkDXYQBv1xwGUli-11" edge="1">
          <mxGeometry width="50" height="50" relative="1" as="geometry">
            <mxPoint x="665" y="340" as="sourcePoint" />
            <mxPoint x="762" y="410" as="targetPoint" />
          </mxGeometry>
        </mxCell>
        <mxCell id="xFGylxkDXYQBv1xwGUli-24" value="" style="endArrow=classic;html=1;rounded=0;exitX=0.5;exitY=1;exitDx=0;exitDy=0;entryX=0.5;entryY=0;entryDx=0;entryDy=0;" parent="1" source="xFGylxkDXYQBv1xwGUli-9" target="xFGylxkDXYQBv1xwGUli-12" edge="1">
          <mxGeometry width="50" height="50" relative="1" as="geometry">
            <mxPoint x="582" y="470" as="sourcePoint" />
            <mxPoint x="355" y="520" as="targetPoint" />
          </mxGeometry>
        </mxCell>
        <mxCell id="xFGylxkDXYQBv1xwGUli-25" value="" style="endArrow=classic;html=1;rounded=0;exitX=0.5;exitY=1;exitDx=0;exitDy=0;entryX=0.5;entryY=0;entryDx=0;entryDy=0;" parent="1" source="xFGylxkDXYQBv1xwGUli-9" target="xFGylxkDXYQBv1xwGUli-13" edge="1">
          <mxGeometry width="50" height="50" relative="1" as="geometry">
            <mxPoint x="650" y="490" as="sourcePoint" />
            <mxPoint x="670" y="640" as="targetPoint" />
          </mxGeometry>
        </mxCell>
        <mxCell id="xFGylxkDXYQBv1xwGUli-26" value="" style="endArrow=classic;html=1;rounded=0;entryX=0.5;entryY=0;entryDx=0;entryDy=0;exitX=0.5;exitY=1;exitDx=0;exitDy=0;" parent="1" source="xFGylxkDXYQBv1xwGUli-9" target="xFGylxkDXYQBv1xwGUli-15" edge="1">
          <mxGeometry width="50" height="50" relative="1" as="geometry">
            <mxPoint x="740" y="470" as="sourcePoint" />
            <mxPoint x="735" y="520" as="targetPoint" />
          </mxGeometry>
        </mxCell>
        <mxCell id="xFGylxkDXYQBv1xwGUli-27" value="" style="endArrow=classic;html=1;rounded=0;exitX=0.5;exitY=1;exitDx=0;exitDy=0;" parent="1" source="xFGylxkDXYQBv1xwGUli-7" edge="1">
          <mxGeometry width="50" height="50" relative="1" as="geometry">
            <mxPoint x="665" y="340" as="sourcePoint" />
            <mxPoint x="110" y="360" as="targetPoint" />
          </mxGeometry>
        </mxCell>
        <mxCell id="xFGylxkDXYQBv1xwGUli-28" value="" style="endArrow=classic;html=1;rounded=0;exitX=0.5;exitY=1;exitDx=0;exitDy=0;" parent="1" source="xFGylxkDXYQBv1xwGUli-7" edge="1">
          <mxGeometry width="50" height="50" relative="1" as="geometry">
            <mxPoint x="185" y="340" as="sourcePoint" />
            <mxPoint x="175" y="360" as="targetPoint" />
          </mxGeometry>
        </mxCell>
        <mxCell id="xFGylxkDXYQBv1xwGUli-29" value="" style="endArrow=classic;html=1;rounded=0;exitX=0.5;exitY=1;exitDx=0;exitDy=0;" parent="1" source="xFGylxkDXYQBv1xwGUli-7" edge="1">
          <mxGeometry width="50" height="50" relative="1" as="geometry">
            <mxPoint x="185" y="340" as="sourcePoint" />
            <mxPoint x="230" y="360" as="targetPoint" />
          </mxGeometry>
        </mxCell>
        <mxCell id="xFGylxkDXYQBv1xwGUli-30" value="..." style="rounded=0;whiteSpace=wrap;html=1;strokeWidth=0;strokeColor=none;" parent="1" vertex="1">
          <mxGeometry x="80" y="360" width="70" height="30" as="geometry" />
        </mxCell>
        <mxCell id="xFGylxkDXYQBv1xwGUli-31" value="..." style="rounded=0;whiteSpace=wrap;html=1;strokeWidth=0;strokeColor=none;" parent="1" vertex="1">
          <mxGeometry x="140" y="360" width="70" height="30" as="geometry" />
        </mxCell>
        <mxCell id="xFGylxkDXYQBv1xwGUli-33" value="..." style="rounded=0;whiteSpace=wrap;html=1;strokeWidth=0;strokeColor=none;" parent="1" vertex="1">
          <mxGeometry x="190" y="360" width="70" height="30" as="geometry" />
        </mxCell>
        <mxCell id="xFGylxkDXYQBv1xwGUli-40" value="" style="endArrow=classic;html=1;rounded=0;exitX=0.5;exitY=1;exitDx=0;exitDy=0;" parent="1" edge="1">
          <mxGeometry width="50" height="50" relative="1" as="geometry">
            <mxPoint x="405" y="330" as="sourcePoint" />
            <mxPoint x="340" y="360" as="targetPoint" />
          </mxGeometry>
        </mxCell>
        <mxCell id="xFGylxkDXYQBv1xwGUli-41" value="" style="endArrow=classic;html=1;rounded=0;exitX=0.5;exitY=1;exitDx=0;exitDy=0;" parent="1" edge="1">
          <mxGeometry width="50" height="50" relative="1" as="geometry">
            <mxPoint x="405" y="330" as="sourcePoint" />
            <mxPoint x="405" y="360" as="targetPoint" />
          </mxGeometry>
        </mxCell>
        <mxCell id="xFGylxkDXYQBv1xwGUli-43" value="..." style="rounded=0;whiteSpace=wrap;html=1;strokeWidth=0;strokeColor=none;" parent="1" vertex="1">
          <mxGeometry x="370" y="360" width="70" height="30" as="geometry" />
        </mxCell>
        <mxCell id="xFGylxkDXYQBv1xwGUli-45" value="..." style="rounded=0;whiteSpace=wrap;html=1;strokeWidth=0;strokeColor=none;" parent="1" vertex="1">
          <mxGeometry x="300" y="360" width="70" height="30" as="geometry" />
        </mxCell>
        <mxCell id="xFGylxkDXYQBv1xwGUli-20" value="" style="endArrow=classic;html=1;rounded=0;entryX=0.5;entryY=0;entryDx=0;entryDy=0;exitX=0.5;exitY=1;exitDx=0;exitDy=0;" parent="1" source="xFGylxkDXYQBv1xwGUli-6" target="xFGylxkDXYQBv1xwGUli-8" edge="1">
          <mxGeometry width="50" height="50" relative="1" as="geometry">
            <mxPoint x="535" y="220" as="sourcePoint" />
            <mxPoint x="665" y="290" as="targetPoint" />
          </mxGeometry>
        </mxCell>
        <mxCell id="xFGylxkDXYQBv1xwGUli-47" value="" style="endArrow=classic;html=1;rounded=0;exitX=0.5;exitY=1;exitDx=0;exitDy=0;" parent="1" edge="1">
          <mxGeometry width="50" height="50" relative="1" as="geometry">
            <mxPoint x="885" y="330" as="sourcePoint" />
            <mxPoint x="820" y="360" as="targetPoint" />
          </mxGeometry>
        </mxCell>
        <mxCell id="xFGylxkDXYQBv1xwGUli-48" value="" style="endArrow=classic;html=1;rounded=0;exitX=0.5;exitY=1;exitDx=0;exitDy=0;" parent="1" edge="1">
          <mxGeometry width="50" height="50" relative="1" as="geometry">
            <mxPoint x="885" y="330" as="sourcePoint" />
            <mxPoint x="885" y="360" as="targetPoint" />
          </mxGeometry>
        </mxCell>
        <mxCell id="xFGylxkDXYQBv1xwGUli-49" value="" style="endArrow=classic;html=1;rounded=0;exitX=0.5;exitY=1;exitDx=0;exitDy=0;" parent="1" edge="1">
          <mxGeometry width="50" height="50" relative="1" as="geometry">
            <mxPoint x="885" y="330" as="sourcePoint" />
            <mxPoint x="940" y="360" as="targetPoint" />
          </mxGeometry>
        </mxCell>
        <mxCell id="xFGylxkDXYQBv1xwGUli-50" value="..." style="rounded=0;whiteSpace=wrap;html=1;strokeWidth=0;strokeColor=none;" parent="1" vertex="1">
          <mxGeometry x="850" y="360" width="70" height="30" as="geometry" />
        </mxCell>
        <mxCell id="xFGylxkDXYQBv1xwGUli-51" value="..." style="rounded=0;whiteSpace=wrap;html=1;strokeWidth=0;strokeColor=none;" parent="1" vertex="1">
          <mxGeometry x="900" y="360" width="70" height="30" as="geometry" />
        </mxCell>
        <mxCell id="xFGylxkDXYQBv1xwGUli-53" value="..." style="rounded=0;whiteSpace=wrap;html=1;strokeWidth=0;strokeColor=none;" parent="1" vertex="1">
          <mxGeometry x="790" y="360" width="70" height="30" as="geometry" />
        </mxCell>
        <mxCell id="NzIASY8x4UaHDfxS7ESc-5" value="" style="endArrow=none;html=1;rounded=0;entryX=0;entryY=0;entryDx=0;entryDy=0;exitX=1;exitY=1;exitDx=0;exitDy=0;" edge="1" parent="1" source="xFGylxkDXYQBv1xwGUli-5" target="xFGylxkDXYQBv1xwGUli-5">
          <mxGeometry width="50" height="50" relative="1" as="geometry">
            <mxPoint x="600" y="370" as="sourcePoint" />
            <mxPoint x="650" y="320" as="targetPoint" />
          </mxGeometry>
        </mxCell>
        <mxCell id="NzIASY8x4UaHDfxS7ESc-6" value="" style="endArrow=none;html=1;rounded=0;exitX=1;exitY=0;exitDx=0;exitDy=0;" edge="1" parent="1" source="xFGylxkDXYQBv1xwGUli-5">
          <mxGeometry width="50" height="50" relative="1" as="geometry">
            <mxPoint x="990" y="340" as="sourcePoint" />
            <mxPoint x="790" y="330" as="targetPoint" />
          </mxGeometry>
        </mxCell>
        <mxCell id="NzIASY8x4UaHDfxS7ESc-7" value="" style="endArrow=none;html=1;rounded=0;entryX=0;entryY=0;entryDx=0;entryDy=0;exitX=1;exitY=1;exitDx=0;exitDy=0;" edge="1" parent="1" source="xFGylxkDXYQBv1xwGUli-7" target="xFGylxkDXYQBv1xwGUli-7">
          <mxGeometry width="50" height="50" relative="1" as="geometry">
            <mxPoint x="990" y="340" as="sourcePoint" />
            <mxPoint x="800" y="290" as="targetPoint" />
          </mxGeometry>
        </mxCell>
        <mxCell id="NzIASY8x4UaHDfxS7ESc-8" value="" style="endArrow=none;html=1;rounded=0;entryX=0;entryY=1;entryDx=0;entryDy=0;exitX=1;exitY=0;exitDx=0;exitDy=0;" edge="1" parent="1" source="xFGylxkDXYQBv1xwGUli-7" target="xFGylxkDXYQBv1xwGUli-7">
          <mxGeometry width="50" height="50" relative="1" as="geometry">
            <mxPoint x="280" y="340" as="sourcePoint" />
            <mxPoint x="90" y="290" as="targetPoint" />
          </mxGeometry>
        </mxCell>
        <mxCell id="NzIASY8x4UaHDfxS7ESc-9" value="" style="endArrow=none;html=1;rounded=0;entryX=0;entryY=0;entryDx=0;entryDy=0;exitX=1;exitY=1;exitDx=0;exitDy=0;" edge="1" parent="1" source="xFGylxkDXYQBv1xwGUli-2" target="xFGylxkDXYQBv1xwGUli-2">
          <mxGeometry width="50" height="50" relative="1" as="geometry">
            <mxPoint x="280" y="290" as="sourcePoint" />
            <mxPoint x="90" y="340" as="targetPoint" />
          </mxGeometry>
        </mxCell>
        <mxCell id="NzIASY8x4UaHDfxS7ESc-10" value="" style="endArrow=none;html=1;rounded=0;entryX=0;entryY=1;entryDx=0;entryDy=0;exitX=1;exitY=0;exitDx=0;exitDy=0;" edge="1" parent="1" source="xFGylxkDXYQBv1xwGUli-2" target="xFGylxkDXYQBv1xwGUli-2">
          <mxGeometry width="50" height="50" relative="1" as="geometry">
            <mxPoint x="520" y="340" as="sourcePoint" />
            <mxPoint x="330" y="290" as="targetPoint" />
          </mxGeometry>
        </mxCell>
        <mxCell id="NzIASY8x4UaHDfxS7ESc-11" value="" style="endArrow=none;html=1;rounded=0;exitX=1;exitY=1;exitDx=0;exitDy=0;entryX=0;entryY=0;entryDx=0;entryDy=0;" edge="1" parent="1" source="xFGylxkDXYQBv1xwGUli-12" target="xFGylxkDXYQBv1xwGUli-12">
          <mxGeometry width="50" height="50" relative="1" as="geometry">
            <mxPoint x="990" y="290" as="sourcePoint" />
            <mxPoint x="800" y="340" as="targetPoint" />
          </mxGeometry>
        </mxCell>
        <mxCell id="NzIASY8x4UaHDfxS7ESc-12" value="" style="endArrow=none;html=1;rounded=0;exitX=1;exitY=0;exitDx=0;exitDy=0;entryX=0;entryY=1;entryDx=0;entryDy=0;" edge="1" parent="1" source="xFGylxkDXYQBv1xwGUli-12" target="xFGylxkDXYQBv1xwGUli-12">
          <mxGeometry width="50" height="50" relative="1" as="geometry">
            <mxPoint x="630" y="580" as="sourcePoint" />
            <mxPoint x="470" y="520" as="targetPoint" />
          </mxGeometry>
        </mxCell>
      </root>
    </mxGraphModel>
  </diagram>
</mxfile>
